<svg width="20" height="21" viewBox="0 0 20 21" fill="none" xmlns="http://www.w3.org/2000/svg">
<g clip-path="url(#clip0)">
<path d="M9.87813 7.08539C8.0596 7.08539 6.58545 8.55953 6.58545 10.3781C6.58545 12.1966 8.0596 13.6708 9.87813 13.6708C11.6967 13.6708 13.1708 12.1966 13.1708 10.3781C13.1708 8.55953 11.6967 7.08539 9.87813 7.08539Z" fill="#262626"/>
<path d="M19.94 6.38C19.78 2.74667 17.76 0.726667 14.1267 0.56C13.0533 0.5 12.7133 0.5 10 0.5C7.28667 0.5 6.94667 0.5 5.88 0.56C2.24667 0.726667 0.226667 2.74 0.06 6.37333C7.3586e-09 7.44667 0 7.78667 0 10.5C0 13.2133 7.3586e-09 13.5533 0.06 14.62C0.226667 18.2533 2.24 20.2733 5.87333 20.44C6.94667 20.5 7.28667 20.5 10 20.5C12.7133 20.5 13.0533 20.5 14.1267 20.44C17.7533 20.2733 19.7733 18.26 19.94 14.62C20 13.5533 20 13.2133 20 10.5C20 7.78667 20 7.44667 19.94 6.38ZM10 15.6333C7.16494 15.6333 4.86667 13.3351 4.86667 10.5C4.86667 7.66494 7.16494 5.36667 10 5.36667C12.8351 5.36667 15.1333 7.66494 15.1333 10.5C15.1333 13.3351 12.8351 15.6333 10 15.6333ZM15.3333 6.36C14.6706 6.36 14.1333 5.82272 14.1333 5.16C14.1333 4.49728 14.6706 3.96 15.3333 3.96C15.996 3.96 16.5333 4.49728 16.5333 5.16C16.5351 5.47877 16.4094 5.78519 16.184 6.01062C15.9585 6.23605 15.6521 6.36173 15.3333 6.36Z" fill="#262626"/>
</g>
<defs>
<clipPath id="clip0">
<rect width="20" height="20" fill="white" transform="translate(0 0.5)"/>
</clipPath>
</defs>
</svg>
