<svg width="20" height="21" viewBox="0 0 20 21" fill="none" xmlns="http://www.w3.org/2000/svg">
<path fill-rule="evenodd" clip-rule="evenodd" d="M10 0.5C15.5228 0.5 20 4.97715 20 10.5C20 16.0228 15.5228 20.5 10 20.5C4.47715 20.5 0 16.0228 0 10.5C0 4.97715 4.47715 0.5 10 0.5ZM13.9286 15.921H6.4036V16.2143H13.9286V15.921ZM13.3384 3.74992C11.5859 4.9099 10.3874 7.12263 10.3874 7.12263C9.84881 7.99098 8.96745 9.50338 8.0838 11.0407L7.91817 11.3291C7.2838 12.4346 6.65923 13.533 6.17091 14.3944C5.82601 14.3944 5.37076 14.0147 5.37076 14.0147C5.54044 14.4546 6 14.6917 6 14.6917C5.52938 15.5232 5.22321 16.0676 5.22321 16.0676L6.25605 15.6277C6.37286 15.3363 6.4952 15.0509 6.62246 14.7726C10.8872 14.6451 12.2012 12.1719 12.2995 11.9743L12.3052 11.9625C12.3054 11.962 12.3055 11.9617 12.3055 11.9617C13.1386 10.4292 12.1366 10.0915 12.0211 10.0583L12.0132 10.0561C12.0114 10.0556 12.0104 10.0554 12.0104 10.0554C10.5463 9.6543 8.11332 12.0601 8.11332 12.0601C9.38811 10.0777 10.6449 8.77524 10.9213 8.49786L10.9521 8.46716C10.9548 8.46442 10.9574 8.4619 10.9597 8.45962L10.9709 8.44861C10.9751 8.44447 10.9773 8.44239 10.9773 8.44239C11.7993 7.63029 11.5219 7.22892 11.4397 7.14127L11.4307 7.1321C11.4242 7.12575 11.4202 7.12263 11.4202 7.12263C13.6962 5.7155 13.7802 4.38023 13.7813 4.20844L13.7813 4.19817C13.7812 4.19679 13.7812 4.19558 13.7812 4.19454L13.781 4.19036C13.781 4.19001 13.781 4.18984 13.781 4.18984C13.781 3.52843 13.3384 3.74992 13.3384 3.74992ZM11.7153 11.0462L11.7152 11.0544C11.7144 11.0895 11.7081 11.2322 11.6609 11.3972C11.4482 12.1432 10.3508 14.2172 6.77124 14.4546C6.77124 14.4546 8.05584 12.1075 10.6825 10.642C10.6825 10.642 11.7153 10.0472 11.7153 11.0462ZM10.8301 7.26927C11.2465 7.4323 10.8777 7.80934 10.8341 7.8519L10.8301 7.85583C10.7645 7.92678 10.6764 8.01725 10.5811 8.11304L10.5085 8.18565C10.2393 8.45395 9.94476 8.73567 9.94476 8.73567C10.3551 7.92426 10.8301 7.26927 10.8301 7.26927ZM13.1908 4.33648C13.1908 4.33648 13.1863 4.35124 13.1762 4.37902L13.1662 4.40598C13.0523 4.70668 12.5156 5.92773 10.9773 6.97599C10.9773 6.97599 12.0971 5.29636 13.1908 4.33648Z" fill="#262626"/>
</svg>
