<svg width="17" height="16" viewBox="0 0 17 16" fill="none" xmlns="http://www.w3.org/2000/svg">
<path d="M5.6768 9.90331L7.76934 12.6312C7.29972 12.8039 6.78867 12.8867 6.25691 12.8867C3.70166 12.8867 1.71271 10.9116 1.71271 7.26519C1.71271 3.61879 3.70166 1.64365 6.25691 1.64365C8.81215 1.64365 10.8011 3.61879 10.8011 7.26519C10.8011 9.37845 10.1312 10.9254 9.07459 11.8577L7.58287 9.90331H5.6768ZM0 7.26519C0 11.7403 2.62431 14.5304 6.25691 14.5304C7.17541 14.5304 8.03177 14.3508 8.79144 14.0124L10.0276 15.663H11.9475L10.0967 13.2044C11.5953 11.9613 12.5138 9.91022 12.5138 7.26519C12.5138 2.79006 9.87569 0 6.25691 0C2.62431 0 0 2.79006 0 7.26519Z" fill="#262626"/>
<path d="M15.0488 14.4475C15.7394 14.4475 16.3057 13.8812 16.3057 13.1906C16.3057 12.5 15.7394 11.9337 15.0488 11.9337C14.3582 11.9337 13.7781 12.5 13.7919 13.1906C13.7781 13.8812 14.3582 14.4475 15.0488 14.4475Z" fill="#262626"/>
</svg>
