<svg width="20" height="21" viewBox="0 0 20 21" fill="none" xmlns="http://www.w3.org/2000/svg">
<path d="M18.8928 0.500022H1.10716C0.812983 0.49817 0.530444 0.614042 0.322243 0.822243C0.114042 1.03018 -0.00182999 1.31298 2.18601e-05 1.60716V19.4C2.18601e-05 19.6928 0.116953 19.9741 0.324624 20.1804C0.53256 20.3867 0.814041 20.5018 1.10716 20.5H10.7143V12.7571H8.07858V9.73572H10.7143V7.51429C10.7143 4.92858 12.2929 3.52144 14.5928 3.52144C15.3706 3.51536 16.1484 3.55584 16.9214 3.64287V6.34287H15.3C14.0428 6.34287 13.8 6.93572 13.8 7.80715V9.73572H16.7928L16.4286 12.7571H13.8V20.5H18.9C19.1928 20.5 19.4741 20.383 19.6804 20.1754C19.8867 19.9674 20.0018 19.686 20 19.3928V1.60716C20.0018 1.31298 19.886 1.03044 19.6778 0.822243C19.4698 0.614042 19.187 0.49817 18.8928 0.500022Z" fill="#262626"/>
</svg>
