<svg width="20" height="21" viewBox="0 0 20 21" fill="none" xmlns="http://www.w3.org/2000/svg">
<g clip-path="url(#clip0)">
<path d="M19.603 5.92295C19.3845 5.1223 18.7406 4.49173 17.9232 4.27774C16.4415 3.88889 10.5 3.88889 10.5 3.88889C10.5 3.88889 4.55856 3.88889 3.07682 4.27774C2.25936 4.49176 1.61554 5.1223 1.39702 5.92295C1 7.37418 1 10.402 1 10.402C1 10.402 1 13.4299 1.39702 14.8811C1.61554 15.6818 2.25936 16.286 3.07682 16.5C4.55856 16.8889 10.5 16.8889 10.5 16.8889C10.5 16.8889 16.4414 16.8889 17.9232 16.5C18.7406 16.286 19.3845 15.6818 19.603 14.8811C20 13.4299 20 10.402 20 10.402C20 10.402 20 7.37418 19.603 5.92295ZM8.5568 13.1511V7.65296L13.5227 10.4021L8.5568 13.1511Z" fill="black"/>
</g>
<defs>
<clipPath id="clip0">
<rect width="20" height="20" fill="white" transform="translate(0 0.5)"/>
</clipPath>
</defs>
</svg>
